<?xml version="1.0" standalone="no"?>
<!DOCTYPE svg PUBLIC "-//W3C//DTD SVG 20010904//EN"
 "http://www.w3.org/TR/2001/REC-SVG-20010904/DTD/svg10.dtd">
<svg version="1.0" xmlns="http://www.w3.org/2000/svg"
 width="1388.000000pt" height="1575.000000pt" viewBox="0 0 1388.000000 1575.000000"
 preserveAspectRatio="xMidYMid meet">

<g transform="translate(0.000000,1575.000000) scale(0.100000,-0.100000)"
fill="#000000" stroke="none">
<path d="M19 15728 c5 -13 612 -1527 1350 -3366 795 -1983 1341 -3356 1341
-3375 0 -23 -692 -3515 -735 -3715 l-5 -22 1214 0 c1148 0 1215 1 1220 18 3 9
167 831 365 1826 198 994 364 1813 369 1820 5 6 1229 1544 2720 3418 1492
1874 2712 3409 2712 3412 0 3 -561 6 -1247 5 l-1248 0 -1875 -2332 c-1032
-1283 -1880 -2331 -1885 -2331 -6 1 -139 325 -297 720 -158 396 -579 1445
-934 2332 l-646 1612 -1214 0 -1214 0 9 -22z"/>
<path d="M9885 10849 c-959 -39 -1783 -229 -2476 -570 -225 -111 -309 -159
-499 -285 -205 -136 -344 -248 -519 -419 -340 -332 -573 -677 -734 -1085 -210
-532 -269 -1210 -156 -1780 79 -397 280 -763 597 -1084 170 -172 317 -284 577
-441 447 -269 1048 -496 1970 -744 722 -194 1166 -344 1415 -478 223 -119 413
-277 488 -405 150 -255 126 -635 -58 -909 -60 -89 -198 -223 -308 -298 -185
-125 -479 -245 -752 -305 -142 -31 -342 -61 -520 -77 -197 -19 -713 -16 -940
5 -1033 94 -1984 422 -2804 968 -81 55 -151 97 -153 94 -3 -3 -227 -422 -499
-932 l-493 -928 62 -43 c451 -320 1131 -625 1824 -818 1386 -387 3018 -415
4273 -75 1225 332 2144 1013 2585 1915 220 450 308 850 309 1400 0 298 -11
413 -64 630 -120 500 -444 945 -921 1266 -209 140 -552 319 -824 429 -271 110
-849 294 -1413 450 -1023 283 -1397 433 -1698 680 -212 175 -312 435 -275 714
56 418 363 757 871 961 323 130 642 192 1118 217 266 13 596 2 889 -32 789
-90 1514 -333 2108 -705 55 -35 101 -62 102 -62 2 3 687 1404 808 1653 l103
211 -112 67 c-147 89 -496 260 -671 329 -913 360 -2057 533 -3210 486z"/>
</g>
</svg>
